<?xml version="1.0" standalone="no"?>
<!DOCTYPE svg PUBLIC "-//W3C//DTD SVG 20010904//EN"
 "http://www.w3.org/TR/2001/REC-SVG-20010904/DTD/svg10.dtd">
<svg version="1.0" xmlns="http://www.w3.org/2000/svg"
 width="137.000000pt" height="137.000000pt" viewBox="0 0 137.000000 137.000000"
 preserveAspectRatio="xMidYMid meet">
<metadata>
Created by potrace 1.11, written by Peter Selinger 2001-2013
</metadata>
<g transform="translate(0.000000,137.000000) scale(0.100000,-0.100000)"
fill="#000000" stroke="none">
<path d="M570 1355 c-12 -15 15 -138 34 -154 7 -5 39 -1 86 13 l75 21 -2 38
c-2 21 -8 50 -15 65 -13 26 -17 27 -90 29 -53 1 -81 -3 -88 -12z"/>
<path d="M773 1344 c9 -48 26 -84 38 -84 13 0 119 59 119 66 0 8 -49 23 -97
30 -27 3 -52 9 -57 12 -5 3 -7 -8 -3 -24z"/>
<path d="M475 1331 c-52 -23 -95 -104 -80 -152 6 -18 13 -19 73 -13 37 4 73 7
79 7 22 1 23 30 5 97 -18 68 -32 80 -77 61z"/>
<path d="M877 1261 l-67 -36 5 -95 c4 -52 8 -101 10 -107 5 -15 152 33 158 51
2 6 0 52 -5 101 -5 50 -10 95 -10 102 -2 23 -23 19 -91 -16z"/>
<path d="M984 1283 c6 -21 13 -67 21 -142 3 -30 7 -56 9 -59 6 -5 123 65 131
78 12 20 -118 140 -152 140 -9 0 -12 -7 -9 -17z"/>
<path d="M685 1181 c-33 -9 -66 -20 -72 -24 -9 -6 -13 -37 -13 -99 l0 -90 56
7 c30 3 61 8 67 10 7 2 25 6 40 10 l28 6 -2 82 c-4 131 0 127 -104 98z"/>
<path d="M497 1143 c-2 -1 -21 -3 -42 -4 -49 -3 -66 -15 -60 -43 2 -11 7 -39
10 -61 10 -76 9 -75 90 -75 49 0 74 4 77 13 3 6 5 48 4 92 l-1 80 -38 0 c-21
1 -39 0 -40 -2z"/>
<path d="M1072 1087 c-43 -25 -74 -50 -77 -62 -9 -41 -12 -165 -4 -170 9 -6
108 41 172 82 39 24 39 25 33 78 -5 52 -29 115 -44 115 -4 0 -40 -19 -80 -43z"/>
<path d="M879 1002 l-77 -25 -12 -61 c-6 -34 -16 -76 -22 -94 -5 -18 -8 -36
-5 -38 5 -6 178 44 189 55 11 10 22 191 12 190 -5 -1 -43 -13 -85 -27z"/>
<path d="M678 956 c-37 -6 -73 -16 -79 -23 -7 -7 -21 -45 -31 -85 -10 -40 -21
-81 -24 -92 -5 -16 -1 -18 48 -12 133 13 142 21 169 132 10 43 16 80 13 83 -8
8 -26 8 -96 -3z"/>
<path d="M453 933 c-7 -3 -13 -10 -13 -17 0 -24 62 -136 75 -136 15 0 51 121
42 144 -6 15 -72 20 -104 9z"/>
<path d="M1076 860 l-100 -49 -17 -58 c-9 -32 -22 -73 -27 -90 -14 -43 -1 -43
61 -2 61 40 142 129 173 190 26 52 28 59 17 58 -5 0 -53 -23 -107 -49z"/>
<path d="M1182 813 c-53 -76 -114 -134 -184 -176 -32 -19 -55 -37 -51 -41 10
-10 99 -7 129 4 15 6 35 8 46 4 45 -14 -12 -152 -96 -237 -83 -83 -99 -89 -68
-25 27 57 40 164 22 188 -9 13 -14 10 -35 -15 -31 -36 -83 -169 -91 -230 -5
-35 -12 -46 -33 -54 -64 -27 -150 -29 -236 -6 -60 16 -94 35 -63 35 22 0 157
45 197 65 69 36 175 174 156 205 -26 42 -248 -67 -372 -184 l-63 -59 -38 26
c-95 62 -224 218 -252 303 -6 19 -15 34 -20 34 -19 0 -69 -62 -75 -92 -4 -18
-9 -40 -11 -50 -3 -9 14 -39 40 -71 36 -44 46 -65 51 -108 20 -159 112 -260
280 -311 60 -18 149 -21 170 -5 29 22 10 38 -130 107 -93 45 -132 70 -159 102
-20 23 -34 43 -33 45 2 1 29 -11 60 -27 46 -26 173 -75 200 -78 8 -1 85 -12
107 -16 8 -1 30 -16 49 -34 45 -43 108 -61 201 -57 122 6 245 63 312 146 29
37 42 89 22 96 -6 2 -47 -21 -92 -52 -102 -69 -118 -75 -217 -81 l-80 -5 70
35 c39 19 95 58 127 85 31 28 65 51 76 51 38 0 88 23 124 58 44 42 91 142 92
197 1 59 -23 51 -60 -20 -29 -56 -81 -121 -90 -112 -2 2 2 26 10 53 8 27 17
83 20 124 2 41 14 99 25 128 21 53 28 112 12 112 -4 0 -26 -26 -49 -57z"/>
<path d="M837 776 c-89 -27 -101 -36 -128 -87 -35 -69 -28 -74 94 -78 79 -2
87 5 118 96 12 38 24 74 27 81 6 17 -21 14 -111 -12z"/>
<path d="M620 722 c-40 -6 -44 -18 -13 -39 51 -35 52 -35 73 -1 31 51 29 52
-60 40z"/>
</g>
</svg>
